<?xml version="1.0" encoding="UTF-8"?>
<svg version="1.1" viewBox="0 0 1533 2048" width="432" height="577" xmlns="http://www.w3.org/2000/svg">
<path transform="translate(708,850)" d="m0 0h11l10 4 7 9 5 13 1 4 5 1-1 7v14h8l-1-21 4-1 2 1v21h7l1-11-1-10 4-1 2 1-1 21h9l-1-3v-18l4-1 4-12 4-8 4-5 7-4 4-1h11l11 4 6 4 4 4v9l-6 9v6l-6-1h-8l-7-2v-3l13-1 5-3-1-2-9 3h-8l-1-3 10-3 3-3v-3l-6-2-3-2-5 1-8 7-4 8-1 6 6-12 5-4 2 3-1 4-5 5-6 12-2 11 11 1 2-6 5-5 3-1 4 2 3 7-1 7-6 12-3 1-2-9 1-3h-2v21l4 18 6 12 10 12 10 7 5 2 2-4 2-9 4-6 10-6h7l4 2v4l-4 4-4 8-8 5-9 1-2-1 3 7v5l-5-1-11-8-10-9-8-11-6-12-5-19-1-5v-16h-9l3 15 7 21 9 17 9 11v2l4 2 9 8 12 7 5 1 4-10 7-8 3-1 1 1v20l-1 5 2-1 5-12 4-6 5-5h4l-1 18-1 12 10 1 9 4 6 7 4 8-2 1-28-7-3-1-1 8-5 21-9 21-9 15-11 12-7 7-14 10-14 6-21 6-5 1-2-7 6-4 18-6 14-7 11-8 7-6 11-14 8-15 7-23 3-20-3-2-2 11-5 22-5 13-6 11-7 10-9 10-10 8-15 8-18 5-10 1 5 11 3 8 1 8h14l2 2 2 7h7l2 3v3h-102l-1-3 1-2 8-1 4-9 15 1 2-14 4-10 2-4-10-1-18-5-18-10-13-12-8-11-9-16-6-18-4-20v-6l-4 2 1 10 7 27 5 12 6 10 9 12 11 10 15 9 19 7 8 3 3 5-1 4-9-1-17-5-16-8-11-8-10-9-9-10-9-16-4-9-5-13-6-24v-3l-14 4-13 3h-5l1-4 6-9 5-4 15-4h2l-2-10-1-9v-11l5 2 7 6 4 9 1 8h3l-2-13v-10l1-2 5 1 7 9 4 8 6-2 11-7 13-11 9-12 8-16 6-16 4-20h-8l-1 18-4 17-6 15-9 12-8 8-16 11h-3v-10l-10-3-8-7-6-12 5-3 9 1 6 4 4 5 3 7 1 8 4-1 11-7 7-7 8-12 4-14 2-19-1-13-2 3 2 2-1 8-4-2-5-8-1-4v-9l2-4 5-2 5 3 5 8h9v-7l-4-11-5-7v-2l-3-1-1-6 2-1 5 4 5 9-1-6-6-9-4-3h-7l-7 5 2 4 11 4-1 2h-8l-11-3 2 5 8 1 8-1v3l-5 3-16 1-1-2 1-3-3-6v-2h-2l-2-4 1-7 8-7 9-4zm0 46-2 2v9l4-1 3-3-2-6zm107 0-3 4-1 4 7 1 2-2-1-5zm-55 13-2 5v109l1 1h6l2-1 1-15v-84l-1-14-1-1zm-14 1-1 15v99h8l1-1v-113zm25 0v114h7l1-1 1-97-1-16zm11 0 2 14 7 28 11 23 9 11 12 12 14 11 6 3h4l-6 31-5 16-7 12-9 11-13 9-14 6-11 3-12 2v2h8l18-4 14-6 13-9 7-7 8-11 7-15 4-15 3-22v-6l-8-5-14-9-12-11-8-9-8-13-7-14-5-16-5-20-1-2zm-42 6-8 27-8 18-9 14-8 10-10 9-15 10-9 5v10l3 17 5 18 7 14 8 11 7 7 14 9 9 4 16 4 11 1 2-2-10-2-19-5-13-7-12-11-7-10-7-14-5-18-3-23 6-1 9-6 13-12 11-11 7-11 6-12 7-21 3-14v-8zm42 20v88l6 1v7l-3 1-1 5 1 1h34l-2-4-3-9-2-16 10 2 7 1-1 3v7l11-3 2-4-4-4-9-6-9-9-8-7-11-14-8-16-6-17-3-7zm-41 3-7 18-5 12-8 13-11 12-9 9-9 7-8 5 1 5 10 2-4 7-3-1-1-5h-1l1 12 5 17 13-5 1-1v-7h34l1-3-3-6v-4l4-2v-85zm-80 26v3l5 4 5 1 1-3-4-4zm198 0-5 4-1 4 7-1 6-4-1-3zm-44 55 1 5 5 10 5 1-1-6-6-8zm14 4 1 4 2 1-2-5zm4 5-2 3-1 7 6 2 2-6v-5zm-88 1 1 4 2 2h29l4-5zm74 10 1 7 11 4 2 2 2-7v-4zm-108 1-1 2 1 3h103l1-4-4-1zm104 6-10 5-5 7-9 3-6 1-1-1-8-1h-21l-12 1v2l-14-3-5-3-4-6-6-4h-6l-2 4-4 1v-2l-9 2 1 6 6 10 9 10 8 6 12 6h3l2-7v-5l-8-2h-8v-5h18l7-1 2-6h36v5l4 2h15l8-1v5l-17 2 1 10 1 3 10-3 11-7 9-9 7-11 2-5-1-3-5-1-3-1v3l-4-2-3-5zm-84 3-1 1v5l5 1v-7zm10 0v6l4 1v-7zm10 0v7h4l1-6zm19 0-2 2v4l4 1 2-6zm9 0v7h4v-7zm10 0-1 6 3 1 3-1v-5zm-42 18-1 3 2 1h30v-4zm-6 10-3 5v7l10 5 5 1h20l13-5 2-1-1-10-2-2zm16 37-6 4-3 8 2 8 4 5 6 3 7-1 6-4 4-6v-7l-4-6-4-4z" fill="#A69E9D"/>
<path transform="translate(903,1050)" d="m0 0h3l2 6 1 12 1 2v6l-1 2h5l1-7h4 4l3 11-1 4-4-1-2-1-11-1-1 4 2-2h9l2 3-8 10-5 3-5-2 1 4-5 6 7-3 9-1 3 3-1 5-3 10v5l9-3v3l-10 8-7 4 1 8-2 4-6-1-6-4-20-1 3 5 9 8-1 4-5 2-3-2h-4l-2 3h-2l-1-5-5-1 2-4 5-3-1-5-4-1 1 4-7-1-2-6h-6l1 4h3l-1 4h-2l-1 9v7l-3 5-8-2v2l6 3v5l-4-2-4-5v-2l-6-2v-3l1-1h8l4 1 1-6v-10l1-7-9-2v-6l1-5v-7l-6 5h-2l-1 3-2-1 9-10 7-9 10-10 4-2v5l-2 4 8-1 10-8 8-5-3-2-5-3-7-1v-4l7 1 8 3h4l3 3-3 7-7 1-2 3v8l-9 1-3 3 4 2 6-1h10l4 2-1 3-7 1 1 2h11l-3-7-2-6 6-14 7-1 2-5v-9l2-4h3l-2-17-1-3zm3 31v2h2v-2zm-10 20-1 1v10l3-1v-10zm-4 1m-21 4m38 2-5 4-1 7 3 2h4l1-9v-4zm-52 5m-4 1-11 2-3 3 18 1 5 2 2 4 4 5 3 4h2l-1-5-5-9-7-4-3-3zm-9 9 2 6 2 2h5v-4zm42 6 1 6h-7v6l1 1h13l10-4 8-7-1-2-3 2h-7l-2-2zm-45 5 2 4 1 1h21v-2l-7-1h-10zm28 6v1h5v-1zm27 4 5 5 2-1-4-4z" fill="#A69E9D"/>
<path transform="translate(594,1056)" d="m0 0h5 4l3 1 2 7-4 7h2 4l1 3-1 2 7 2 4 3 2-4 2 6v13h7l2 4-5 3-1 3h2l2-5 4 2 1 5-1 1 2 1-1 8-2 5 6 2h4l1-4-5 1-2-1 1-4 5-2 7 1 6 1 4-4-11-2-1-3 2-3-4-7 3-1 5 5 9 7 7-1-1-3-2-1v-4l4 1 1 6h5l5 6 3 5 8 8-1 2-4-3-1 2v7l1 7-3 1 2 4v5l-5-5v-2h-5l1 3 1 13 1 6 3 1-3 5-3 1-3-6v-5l1-4-3-5-1-6 2-4-6 1-1 6-4 1-3-3-4 2 1 3 6 4-1 3h-3l-1 5-4 1v-3l-10 1-3-2 1-5 10-8v-2h-21l-3 3-4 2-4-1 5-5 5-1 1-3 12-1v-9l-2 4-4-1 1-7-2 1h-11v2l-5 1-6-2-2-2-1-14 3-3 3 7h-3l5 3 1-8-6-5 2-3 6 2 6 4 1 2 2-2-5-3-5-5v-2l-7-1-2-1v-3-1l-4-2-2-2v-5l5-1 5 1v-3h-8l-6 3-3-1 1-10v-5l-4-5-2-1zm6 5m24 36-2 4 3-1zm48 11m-1 1m-2 2m5 3-9 3-8 5-5 11 1 2 3-1 6-9 6-5 3-1h10l4 1-3-4zm-46 6-2 1v2l4-1v-2zm51 3-6 4v4h5l2-5zm-57 4m25 1 2 2v-2zm38 4-9 5-5-1h-10l1 2 4 1h14l6-5zm-34 8-1 2 4-1zm5 1m2 1m2 1 3 2 2-1z" fill="#A69E9D"/>
<path transform="translate(707,1156)" d="m0 0h109l7 3 3 9-1 6-5 5-5 1h-8v6l-1 1-23 2-6 4-2 2 1 4 5 4 8 3v6l-5 1h-12l4 6 4 5h-35l5-5 2-6h-12l-4-3-5 5-5-2 7-7 6-1 10-5 2-2v-3l-9-6-6-1-16-1-1-1v-7h-14l-5-6-1-6 4-8zm4 4-5 5-1 4 1 4 7 3h102l4-4v-7l-2-4-4-1zm33 18-17 1 1 4h68l3-1v-3l-3-1zm-2 28-1 2 3 3h34l6-2v-3z" fill="#A8A1A0"/>
<path transform="translate(643,910)" d="m0 0 3 1v4h6l2-4 3 1v8l6 2-1 4-6 3h-4l3 9 3 2-2-3 1-4h5l2 4 1 11 5 2 2 1-2-9-2-5 6-3 3-5-1-5v-4l3-1v-6l4 1 3 2-1 4-4 4-1 17-1 3v7l6 8 2 1-2-10 2-3h5l2 5-1 9-5 8-5 4h-2l-4-9-1-8-1 2-4-1-3-3v-2l-9-1-9 2-2 4-5-1 3-6 3-3-3-2 1-4 4-2-6-9-6-5-1-10zm9 12-9 1 1 3 10-1 1-3z" fill="#A69E9D"/>
<path transform="translate(869,910)" d="m0 0 3 1 1 3 6 1 1-5 5 1 2 3-1 11-3 2-3-3h-5l5 2 1 2-3 5-2 5 3 3-1 6 3 6v4l-5-1-3-3-7-2-9 1-2 5-4 1 1-7 8-5 1-9 4-5 4 2-1 5 4-4v-5l-9-4v-5l4-2z" fill="#A59D9C"/>
<path transform="translate(844,912)" d="m0 0 2 1 3 7v14l6 2 1 5-2 8-4 5-4 16-2 5-5-5-6-8-2-4v-8l2-3h5l3 9 2 1 2-4 2-3v-7l-1-2-1-10-2-9-4-7zm5 25 1 4z" fill="#A69E9D"/>
<path transform="translate(742,1204)" d="m0 0m-3 1h3v5h31l3 1v2h-4l4 6 4 5h-35l5-5 2-6h-12l-4-3-5 5-5-2 7-7z" fill="#A59D9C"/>
<path transform="translate(710,1009)" d="m0 0 3 1-1 16-3 9-5 6-13 1 3-4v-7l2-10 1-6 8-5zm-2 12-5 5-4 7v3l5-1 6-10v-4z" fill="#A8A09F"/>
<path transform="translate(863,955)" d="m0 0h7l4 2v4l-4 4-4 8-8 5-9 1-3-2 2-7 4-8 9-6zm-4 10-5 4-1 4 7-1 6-4-1-3z" fill="#A59D9C"/>
<path transform="translate(796,1193)" d="m0 0h8l8 2 1 4-5 6-13 3v2h4l8-3h3l-1 4-5 2-7 2-6-1-1-6-1-9 5-5zm7 2-8 3v5l7-2 3-5z" fill="#A69E9D"/>
<path transform="translate(759,1118)" d="m0 0h8l5 4 1 2v7l-4 6-4 2h-6l-5-4-2-4v-6l5-6zm2 4-5 3v6l3 3h6l5-5-2-5-2-2z" fill="#ABA4A3"/>
<path transform="translate(724,1193)" d="m0 0 10 2 2 1-1 7-3 3h-13l-7-7-1-4zm-3 4 2 4 7 2 1-4-2-2z" fill="#A8A09F"/>
<path transform="translate(819,1192)" d="m0 0 2 1-1 6 5 1 4 2 6 2 2 5-3 8-2-2-4-10-17 2 2-5 4-9z" fill="#A69E9D"/>
<path transform="translate(704,1192)" d="m0 0 4 1 6 12 7 3 5 1-1 4-7-1-2-2-3 1-1-3-13-3v-4l5-1z" fill="#A59D9C"/>
<path transform="translate(603,1126)" d="m0 0 6 1 5 3v2h2l4 4 12 6-8 5-3 3h-2l-1-3 3-8-6-2-9-7z" fill="#AAA2A1"/>
<path transform="translate(928,1055)" d="m0 0 4 2-1 5-4 5-2 3-4-2-4-3 1-4 3-4 5-1z" fill="#A59D9C"/>
<path transform="translate(660,1084)" d="m0 0 2 1-2 4-9 3-8 1-4 1-1-4 10-3 5-1z" fill="#A59D9C"/>
<path transform="translate(619,1049)" d="m0 0 3 2v9l-2 5-2 13-3-1-2-4 4-6-1-6z" fill="#A59D9C"/>
<path transform="translate(834,920)" d="m0 0 5 1 2 5h-7l1 6-7-2 1-5h2l2-4z" fill="#A59D9C"/>
<path transform="translate(686,920)" d="m0 0 5 1 6 5-1 5-5-1-5-5-1-4z" fill="#A59D9C"/>
<path transform="translate(694,1202)" d="m0 0 3 1-2 9-4 1-2-2v-5l2-3z" fill="#A59D9C"/>
<path transform="translate(689,1165)" d="m0 0 5 2 2 2-9 6-2-6z" fill="#A59D9C"/>
<path transform="translate(840,903)" d="m0 0 4 2-2 5-4 4-1-3 2-7z" fill="#A9A1A0"/>
<path transform="translate(682,903)" d="m0 0 4 2 2 9-2 1-3-6-1-1z" fill="#A59D9C"/>
<path transform="translate(611,1106)" d="m0 0h2l1 3-3 5-3-3 1-4z" fill="#ABA3A2"/>
<path transform="translate(885,1083)" d="m0 0h5l1 2-3 3v-2l-8 1 2-3z" fill="#A59D9C"/>
<path transform="translate(643,1093)" d="m0 0 4 4-1 3-5-2 1-4z" fill="#A59D9C"/>
<path transform="translate(624,1060)" d="m0 0 4 1 1 3-7 3z" fill="#A8A09F"/>
<path transform="translate(635,1083)" d="m0 0h7l2 2-5 2-4-1z" fill="#A59D9C"/>
<path transform="translate(901,1059)" d="m0 0h1v7l-5-1 1-4z" fill="#A59D9C"/>
<path transform="translate(683,1175)" d="m0 0h3l-1 5h-4l1-4z" fill="#A59D9C"/>
<path transform="translate(719,1165)" d="m0 0h3v6l-4-1z" fill="#ADA5A4"/>
<path transform="translate(812,1208)" d="m0 0 8 1v3l-7-1z" fill="#A59D9C"/>
<path transform="translate(804,1165)" d="m0 0h3v6l-3-1z" fill="#A59D9C"/>
<path transform="translate(768,1165)" d="m0 0 3 1v4h-4z" fill="#AAA2A1"/>
<path transform="translate(757,1165)" d="m0 0 3 1-1 5h-2z" fill="#AAA3A2"/>
<path transform="translate(837,1145)" d="m0 0h4l-1 4h-4z" fill="#A59D9C"/>
<path transform="translate(744,1165)" d="m0 0 2 1v5l-3-1z" fill="#B0A9A9"/>
<path transform="translate(792,1165)" d="m0 0h2v6h-3z" fill="#A59D9C"/>
<path transform="translate(733,1164)" d="m0 0 2 4-1 3h-2v-6z" fill="#B6B0AF"/>
<path transform="translate(841,927)" d="m0 0 1 3-2 3h-3l1-3h2z" fill="#A59D9C"/>
<path transform="translate(705,1209)" d="m0 0 5 1v2l-4 1z" fill="#A59D9C"/>
<path transform="translate(780,1165)" d="m0 0h2v6l-3-1z" fill="#ABA4A3"/>
<path transform="translate(839,1158)" d="m0 0h2v5l-3-1z" fill="#A59D9C"/>
<path transform="translate(656,1092)" d="m0 0 2 1-3 3-4-1z" fill="#A59D9C"/>
<path transform="translate(685,929)" d="m0 0 4 2v2l-4-1z" fill="#A59D9C"/>
<path transform="translate(760,1125)" d="m0 0h6v2l-6-1z" fill="#ADA6A5"/>
<path transform="translate(684,1160)" d="m0 0 4 1-1 3z" fill="#A59D9C"/>
<path transform="translate(867,1093)" d="m0 0 4 1-2 2-2-1z" fill="#B0A9A8"/>
<path transform="translate(696,1129)" d="m0 0 2 1-1 2z" fill="#A59D9C"/>
<path transform="translate(874,1094)" d="m0 0 2 1z" fill="#A59D9C"/>
<path transform="translate(644,1085)" d="m0 0 2 1z" fill="#A59D9C"/>
<path transform="translate(704,878)" d="m0 0 2 1z" fill="#D1CDCD"/>
<path transform="translate(699,1133)" d="m0 0" fill="#A59D9C"/>
<path transform="translate(825,1132)" d="m0 0" fill="#A59D9C"/>
<path transform="translate(698,1132)" d="m0 0" fill="#A59D9C"/>
<path transform="translate(695,1128)" d="m0 0" fill="#A59D9C"/>
<path transform="translate(872,1094)" d="m0 0" fill="#FEFEFE"/>
<path transform="translate(850,958)" d="m0 0" fill="#A59D9C"/>
<path transform="translate(809,873)" d="m0 0" fill="#FEFEFE"/>
</svg>
